<?xml version="1.0" encoding="utf-8"?>
<!-- Generator: Adobe Illustrator 17.1.0, SVG Export Plug-In . SVG Version: 6.00 Build 0)  -->
<!DOCTYPE svg PUBLIC "-//W3C//DTD SVG 1.1//EN" "http://www.w3.org/Graphics/SVG/1.1/DTD/svg11.dtd">
<svg version="1.1" id="Layer_1" xmlns="http://www.w3.org/2000/svg" xmlns:xlink="http://www.w3.org/1999/xlink" x="0px" y="0px"
	 viewBox="0 0 241 241" enable-background="new 0 0 241 241" xml:space="preserve">
<path fill="none" stroke="#000000" stroke-miterlimit="10" d="M-31.5,7.2"/>
<g>
	<path d="M19.9,196.6h29.6V43.4H19.9V10.2h106c64.9,0,87.9,35.7,87.9,69.2c0,25.6-12.9,49-42.8,58.8l33.2,58.4h27l-20,33.2h-35.5
		l-45.1-80.4H91.3v47.2h29.6v33.2h-101V196.6z M126.6,116.9c35,0,46.5-17.7,46.5-36.8c0-19.1-11.9-36.8-46.5-36.8H91.3v73.6H126.6z"
		/>
</g>
<g>
	<path fill="#FFFFFF" d="M54.5,145.1l-0.1-26.6h0l0-79.7l-32.9,0V11.9l104.4,0c26.3,0,48,5.6,62.7,16.2c15.7,11.3,23.7,28,23.7,49.5
		c0,21.2-7.2,37.7-21.3,49.2c-14.9,12.1-37.1,18.3-66,18.3H54.5z M89.8,118.4h22.7c43.9,0,65.3-12.5,65.3-38.3
		c0-28.6-20-41.4-64.8-41.4H89.8V118.4z"/>
	<path d="M125.9,13.4c26,0,47.3,5.5,61.8,15.9c15.3,11,23,27.2,23,48.3c0,20.7-7,36.9-20.7,48.1c-14.6,11.9-36.5,17.9-65,17.9H56
		L55.9,120l0-1.9l0-77.9l0-3l-3,0l-29.9,0V13.4l102,0L125.9,13.4 M88.3,119.9h3h21.2c44.9,0,66.8-13,66.8-39.8
		c0-13.9-4.6-24.1-14.1-31.1c-10.8-8-27.9-11.8-52.2-11.8H91.3h-3v3v76.7V119.9 M125.9,10.4c-0.3,0-0.6,0-0.9,0h-105v29.8l32.9,0
		l0,79.7h0l0.1,26.6h72c60.2,0,88.8-26.6,88.8-69C213.8,32,178.3,10.4,125.9,10.4L125.9,10.4z M91.3,116.9V40.2H113
		c50.1,0,63.3,16.7,63.3,39.9c0,23.5-18.1,36.8-63.8,36.8H91.3L91.3,116.9z"/>
</g>
</svg>
