<?xml version="1.0" encoding="utf-8"?>
<!-- Generator: Adobe Illustrator 17.1.0, SVG Export Plug-In . SVG Version: 6.00 Build 0)  -->
<!DOCTYPE svg PUBLIC "-//W3C//DTD SVG 1.1//EN" "http://www.w3.org/Graphics/SVG/1.1/DTD/svg11.dtd">
<svg version="1.1" id="Layer_1" xmlns="http://www.w3.org/2000/svg" xmlns:xlink="http://www.w3.org/1999/xlink" x="0px" y="0px"
	 viewBox="0 0 100 100" enable-background="new 0 0 100 100" xml:space="preserve">
<path fill="#3AC5F0" d="M89.6,0H10.4C4.7,0,0,4.7,0,10.4v79.2C0,95.3,4.7,100,10.4,100h79.2c5.8,0,10.4-4.7,10.4-10.4V10.4
	C100,4.7,95.3,0,89.6,0z M41.7,66.7h-8.3V54.2h8.3V66.7z M54.2,70.8h-8.3v-4.2h8.3V70.8z M66.7,66.7h-8.3V54.2h8.3V66.7z M62.5,29.2
	l16.7-8.3l0.3,16.7c3,3.6,3.9,7.4,3.9,12.5v4.2c0,7.7-4.2,14.3-10.4,17.9c1.3-1.5,2.1-3.3,2.1-5.4v-8.3c0-4.6-3.7-8.3-8.3-8.3H33.3
	c-4.6,0-8.3,3.7-8.3,8.3v8.3c0,2.1,0.8,4,2.1,5.4c-6.2-3.6-10.4-10.2-10.4-17.9V50c0-4.8,1.5-9,4.2-12.5V20.8l16.7,8.3
	C37.5,29.2,62.5,29.2,62.5,29.2z"/>
</svg>
