<svg xmlns="http://www.w3.org/2000/svg" width="100" height="100" viewBox="0 0 100 100"><path fill="#fff" d="M-102.652 3.002v4.736l-34.825 20.137v-9.663l22.496-12.85-22.496-12.089v-9.648l34.825 19.377zm-95 0v4.736l34.834 20.137v-9.663l-22.505-12.85 22.505-12.089v-9.648l-34.834 19.377z"/><g fill-rule="evenodd" clip-rule="evenodd" fill="#fff"><path d="M100 39.849c-3.689 1.562-7.548 2.954-11.415 4.338 3.4 3.825 2.2 11.678.228 16.209 1.361 1.696 1.063 4.929-1.141 5.479-.018 2.409.425 4.597 1.141 6.394.779 1.952 2.231 3.256 2.968 4.565-1.878.634-3.102 1.92-5.707 1.826-3.343-2.448-3.827-10.153-1.142-13.698-.301-.687-.635-1.861-.457-2.74.241-1.19 1.188-1.348 1.827-2.511 2.285-4.167 1.856-11.491-.913-14.155-8.435 3.076-16.534 5.989-25.571 9.36-2.191.818-6.046 3.218-8.219 3.196-1.556-.016-4.497-2.069-6.622-2.968-15.207-6.426-30.456-13.697-44.977-20.546 12.514-3.324 25.486-6.487 38.356-9.817 4.28-1.107 8.454-2.786 12.558-3.425 1.484-.231 4.258 1.469 6.392 2.284 14.328 5.463 28.647 10.84 42.694 16.209zM77.854 50.58c1.314 4.285 1.449 10.548.457 15.296-13.264-3.25-24.539 2.251-30.138 9.589-5.541-8.461-13.298-15.925-27.625-14.84-.713-4.976 1.096-9.406 2.283-13.242 5.749 2.673 14.792 6.449 21.689 9.588 2.256 1.028 5.166 3.126 6.849 3.197 1.604.065 4.961-1.558 6.851-2.283 6.564-2.525 13.384-5.458 19.634-7.305z"/></g></svg>