<svg xmlns="http://www.w3.org/2000/svg" xmlns:xlink="http://www.w3.org/1999/xlink" width="100" height="100" viewBox="0 0 100 100"><path fill="#fff" d="M82.632 35.288l-26.094-18.777v-7.378h-13.075v7.385l-25.995 18.77h-9.968v13.079h4.868l9.636 29.421h-1.428v13.079h13.076v-3.268h32.692v3.268h13.082v-13.079h-1.435l9.615-29.421h4.894v-13.079h-9.868zm-65.324 9.81h-6.541v-6.54h6.537v6.54h.004zm29.425-32.697h6.535v6.542h-6.535v-6.542zm-16.349 75.197h-6.535v-6.54h6.535v6.54zm45.766 0h-6.534v-6.54h6.541v6.54h-.007zm-5.033-9.81h-4.769v3.271h-32.697v-3.271h-4.765l-9.636-29.421h1.331v-7.258l26.164-18.895h6.531l26.148 18.826v7.328h1.308l-9.615 29.42zm18.112-32.69h-6.537v-6.54h6.537v6.54z"/><g opacity=".3"><defs><path id="a" d="M19.261 22.213h61.479v58.846h-61.479z"/></defs><use xlink:href="#a" overflow="visible" fill="#fff"/><clipPath id="b"><use xlink:href="#a" overflow="visible"/></clipPath><path clip-path="url(#b)" fill="#fff" d="M66.356 81.059v-3.271h4.771l7.182-21.991 2.43-7.43h-1.304v-7.328l-15.901-11.445-10.25-7.381h-6.531l-11.687 8.436-14.478 10.46v7.258h-1.327l2.38 7.271 7.255 22.15h4.768v3.271z"/></g></svg>