<?xml version="1.0" encoding="utf-8"?>
<!-- Generator: Adobe Illustrator 17.1.0, SVG Export Plug-In . SVG Version: 6.00 Build 0)  -->
<!DOCTYPE svg PUBLIC "-//W3C//DTD SVG 1.1//EN" "http://www.w3.org/Graphics/SVG/1.1/DTD/svg11.dtd">
<svg version="1.1" id="Layer_1" xmlns="http://www.w3.org/2000/svg" xmlns:xlink="http://www.w3.org/1999/xlink" x="0px" y="0px"
	 viewBox="0 0 100 100" enable-background="new 0 0 100 100" xml:space="preserve">
<g>
	<path fill="#1A1A1A" d="M36.9,41.7H50V31.5H36L36.9,41.7z M10.3,5l7.2,81L50,95l32.5-9l7.2-81C89.7,5,10.3,5,10.3,5z M76.2,80.8
		L50,88.1V77.8h0l-20.4-5.6l-1.4-16h10l0.7,8.3l11.1,3h0V51.6H27.8l-2.7-30H50v-9.9h32.4L76.2,80.8L76.2,80.8z"/>
	<path opacity="0.8" fill="#1A1A1A" enable-background="new    " d="M62.2,51.6H50v15.9l11.1-3C61.1,64.5,62.2,51.6,62.2,51.6z
		 M50,11.6v9.9h24.9L74,31.5H50v10.2h23.1l-2.7,30.5L50,77.8v10.3l26.2-7.3l6.2-69.2C82.4,11.6,50,11.6,50,11.6z"/>
	<g opacity="0.2">
		<path fill="#1A1A1A" d="M50,21.6H25.1l2.7,30H50v-9.9H36.9L36,31.5h14V21.6z M50,67.5L50,67.5l-11.1-3l-0.7-8.3h-10l1.4,16
			L50,77.8h0V67.5z"/>
	</g>
</g>
</svg>
