<?xml version="1.0" encoding="utf-8"?>
<!-- Generator: Adobe Illustrator 17.1.0, SVG Export Plug-In . SVG Version: 6.00 Build 0)  -->
<!DOCTYPE svg PUBLIC "-//W3C//DTD SVG 1.1//EN" "http://www.w3.org/Graphics/SVG/1.1/DTD/svg11.dtd">
<svg version="1.1" id="Layer_1" xmlns="http://www.w3.org/2000/svg" xmlns:xlink="http://www.w3.org/1999/xlink" x="0px" y="0px"
	 viewBox="0 0 100 100" enable-background="new 0 0 100 100" xml:space="preserve">
<path fill="#3AC5F0" d="M89.6,0H10.4C4.7,0,0,4.7,0,10.4v79.2C0,95.3,4.7,100,10.4,100h79.2c5.7,0,10.4-4.7,10.4-10.4V10.4
	C100,4.7,95.3,0,89.6,0z M33.3,79.2H20.8V37.5h12.5V79.2z M27.1,31.8c-4.2,0-7.6-3.4-7.6-7.6s3.4-7.6,7.6-7.6s7.6,3.4,7.6,7.6
	S31.3,31.8,27.1,31.8z M79.2,79.2H66.7V57.1c0-5.2-2.2-8.8-6.9-8.8c-3.6,0-4.3,2.4-5.2,4.7c-0.3,0.8-0.4,2-0.4,3.1v23H41.7
	c0,0,0.2-38,0-41.7h12.5v7.1c0-2.6,3-7.2,12.8-7.2s12.2,0.3,12.2,14.1V79.2z"/>
</svg>
