<svg xmlns="http://www.w3.org/2000/svg" width="100" height="100" viewBox="0 0 100 100"><path fill="#fff" d="M89.492 79.816l-20.007-20.011c3.252-5.047 5.174-11.036 5.174-17.479 0-17.825-14.509-32.326-32.333-32.326-17.827 0-32.326 14.501-32.326 32.326 0 17.832 14.499 32.33 32.326 32.33 6.441 0 12.427-1.911 17.479-5.167l20.008 20.007c.67.674 1.771.674 2.425 0l7.258-7.258c.673-.658.673-1.748-.004-2.422zm-69.228-37.49c0-12.157 9.897-22.061 22.062-22.061 12.166 0 22.066 9.899 22.066 22.061 0 12.166-9.897 22.063-22.066 22.063-12.165.007-22.062-9.898-22.062-22.063z"/></svg>