<?xml version="1.0" encoding="utf-8"?>
<!-- Generator: Adobe Illustrator 17.1.0, SVG Export Plug-In . SVG Version: 6.00 Build 0)  -->
<!DOCTYPE svg PUBLIC "-//W3C//DTD SVG 1.1//EN" "http://www.w3.org/Graphics/SVG/1.1/DTD/svg11.dtd">
<svg version="1.1" id="Layer_1" xmlns="http://www.w3.org/2000/svg" xmlns:xlink="http://www.w3.org/1999/xlink" x="0px" y="0px"
	 viewBox="0 0 100 100" enable-background="new 0 0 100 100" xml:space="preserve">
<path fill="#3AC5F0" d="M89.6,0H10.4C4.7,0,0,4.7,0,10.4v79.2C0,95.3,4.7,100,10.4,100h79.2c5.7,0,10.4-4.7,10.4-10.4V10.4
	C100,4.7,95.3,0,89.6,0z M79.8,37.1c0,0.6,0,1.3,0,1.9c0,19.7-15,42.5-42.5,42.5c-8.4,0-16.3-2.5-22.9-6.7c1.2,0.1,2.4,0.2,3.6,0.2
	c7,0,13.4-2.4,18.5-6.4c-6.5-0.1-12-4.4-14-10.4c0.9,0.2,1.9,0.3,2.8,0.3c1.4,0,2.7-0.2,3.9-0.5c-6.8-1.4-12-7.4-12-14.6l0-0.2
	c2,1.1,4.3,1.8,6.8,1.9c-4-2.7-6.6-7.2-6.6-12.4c0-2.7,0.7-5.3,2-7.5c7.4,9,18.4,15,30.8,15.6c-0.3-1.1-0.4-2.2-0.4-3.4
	c0-8.2,6.7-14.9,14.9-14.9c4.3,0,8.2,1.8,10.9,4.7c3.4-0.7,6.6-1.9,9.5-3.6c-1.1,3.5-3.5,6.4-6.6,8.3c3-0.4,5.9-1.2,8.6-2.3
	C85.2,32.4,82.7,35,79.8,37.1z"/>
</svg>
