<?xml version="1.0" encoding="utf-8"?>
<!-- Generator: Adobe Illustrator 17.1.0, SVG Export Plug-In . SVG Version: 6.00 Build 0)  -->
<!DOCTYPE svg PUBLIC "-//W3C//DTD SVG 1.1//EN" "http://www.w3.org/Graphics/SVG/1.1/DTD/svg11.dtd">
<svg version="1.1" id="Layer_1" xmlns="http://www.w3.org/2000/svg" xmlns:xlink="http://www.w3.org/1999/xlink" x="0px" y="0px"
	 viewBox="0 0 100 100" enable-background="new 0 0 100 100" xml:space="preserve">
<g opacity="0.3">
	<path fill="#1A1A1A" d="M33.3,23.4h33.3v50H33.3V23.4z"/>
	<g>
		<defs>
			<rect id="SVGID_1_" x="33.3" y="23.4" width="33.3" height="50"/>
		</defs>
		<clipPath id="SVGID_2_">
			<use xlink:href="#SVGID_1_"  overflow="visible"/>
		</clipPath>
		<path clip-path="url(#SVGID_2_)" fill="#1A1A1A" d="M33.3,23.4h33.3v50H33.3V23.4z"/>
	</g>
</g>
<path fill="#1A1A1A" d="M65,10H35c-4.6,0-8.3,3.7-8.3,8.3v63.3c0,4.6,3.8,8.3,8.3,8.3h30c4.6,0,8.3-3.7,8.3-8.3V18.3
	C73.3,13.7,69.6,10,65,10 M50,87.6c-3.3,0-5.9-2.6-5.9-5.9s2.6-5.9,5.9-5.9c3.3,0,5.9,2.6,5.9,5.9C55.9,84.9,53.3,87.6,50,87.6
	 M33.3,23.3h33.3v50H33.3C33.3,73.3,33.3,23.3,33.3,23.3z"/>
</svg>
