<?xml version="1.0" encoding="utf-8"?>
<!-- Generator: Adobe Illustrator 16.0.4, SVG Export Plug-In . SVG Version: 6.00 Build 0)  -->
<!DOCTYPE svg PUBLIC "-//W3C//DTD SVG 1.1//EN" "http://www.w3.org/Graphics/SVG/1.1/DTD/svg11.dtd">
<svg version="1.1" id="Layer_1" xmlns="http://www.w3.org/2000/svg" xmlns:xlink="http://www.w3.org/1999/xlink" x="0px" y="0px"
	 width="481.492px" height="306px" viewBox="0 0 481.492 306" enable-background="new 0 0 481.492 306" xml:space="preserve">
<g>
	<defs>
		<rect id="SVGID_1_" width="481.492" height="306"/>
	</defs>
	<clipPath id="SVGID_2_">
		<use xlink:href="#SVGID_1_"  overflow="visible"/>
	</clipPath>
	<path clip-path="url(#SVGID_2_)" fill="#242021" d="M188.185,156.264c-0.746-0.13-1.493-0.371-2.24-0.373
		c-9.327-0.026-18.654-0.026-27.981,0.001c-0.743,0.002-1.485,0.251-2.227,0.385c-1.943-0.009-3.886-0.019-5.829-0.029
		c-11.036-19.263-22.094-38.514-33.064-57.813c-0.896-1.577-1.844-2.193-3.622-2.087c-2.491,0.148-5,0.098-7.497,0.014
		c-1.3-0.044-1.811,0.309-1.798,1.705c0.124,12.755,0.152,25.511,0.31,38.266c0.023,1.869,0.509,3.747,0.91,5.593
		c0.987,4.539,3.8,7.208,8.413,7.91c1.188,0.18,2.406,0.445,3.585,0.35c2.038-0.165,2.442,0.742,2.359,2.565
		c-0.17,3.756,0.303,3.106-3.217,3.113c-13.966,0.027-27.933,0.022-41.9-0.018c-0.831-0.002-2.334-0.323-2.377-0.648
		c-0.2-1.5-0.036-3.059,0.131-4.582c0.019-0.167,0.886-0.286,1.37-0.349c1.79-0.236,3.619-0.289,5.37-0.688
		c3.35-0.762,5.788-2.806,6.71-6.134c0.752-2.716,1.416-5.556,1.461-8.352c0.223-13.702,0.275-27.407,0.291-41.11
		c0.015-13.102-0.073-26.203-0.16-39.304c-0.011-1.714-0.151-3.45-0.456-5.135c-1.148-6.327-4.594-9.439-10.978-10.052
		c-0.514-0.049-1.038-0.13-1.547-0.082c-1.975,0.187-2.478-0.746-2.4-2.604c0.151-3.59-0.204-3.099,3.008-3.096
		c17.069,0.013,34.141-0.115,51.206,0.149c8.052,0.125,15.803,2.06,23.203,5.472c20.352,9.381,21.066,35.174,4.479,47.548
		c-5.201,3.88-10.951,6.433-17.337,7.59c-2.213,0.4-2.206,0.452-1.113,2.405c7.813,13.967,15.618,27.938,23.453,41.893
		c1.052,1.873,2.199,3.7,3.407,5.478c2.255,3.318,5.442,5.454,9.398,5.724c3.922,0.267,7.916,0.117,11.83-0.305
		c4.192-0.453,7.001-3.087,7.752-7.215c0.781-4.295,1.387-8.69,1.412-13.045c0.135-23.104,0.108-46.21,0.02-69.315
		c-0.015-3.772-0.356-7.585-0.997-11.302c-1.057-6.128-4.367-8.861-10.595-9.322c-0.429-0.032-0.859-0.048-1.289-0.069
		c-2.578-0.126-2.609-0.127-2.588-2.585c0.031-3.66-0.428-3.096,3.178-3.098c27.071-0.018,54.143,0.018,81.213-0.066
		c2.155-0.007,3.132,0.666,3.902,2.634c3.164,8.088,6.393,16.155,9.843,24.124c1.105,2.554-0.918,2.569-2.005,3.512
		c-1.271,1.103-1.913,0.532-2.803-0.606c-3.18-4.071-6.396-8.122-9.783-12.021c-5.983-6.889-13.63-10.59-22.708-11.441
		c-6.875-0.644-13.75-1.022-20.596,0.109c-4.79,0.792-6.923,2.991-7.584,7.799c-0.386,2.806-0.545,5.661-0.563,8.495
		c-0.064,10.259,0.035,20.52-0.076,30.778c-0.022,2.009,0.589,2.529,2.477,2.376c5.652-0.458,11.408-0.284,16.949-1.303
		c8.474-1.558,13.026-6.936,14.312-15.499c0.142-0.938,0.368-1.875,0.383-2.815c0.017-1.165,0.582-1.338,1.602-1.367
		c3.21-0.091,3.211-0.136,3.211,3.073c0.001,14.225,0.008,28.45-0.021,42.676c-0.002,0.78-0.219,2.19-0.501,2.234
		c-1.335,0.208-2.733,0.088-4.095-0.055c-0.153-0.016-0.249-0.913-0.311-1.409c-0.269-2.132-0.341-4.303-0.798-6.392
		c-1.634-7.482-6.477-12.279-14.083-13.089c-5.885-0.627-11.862-0.414-17.799-0.485c-0.418-0.005-0.911,0.68-1.238,1.138
		c-0.165,0.23-0.037,0.67-0.037,1.014c0.028,13.363-0.006,26.726,0.105,40.087c0.078,9.436,3.336,12.797,12.805,12.912
		c5.844,0.07,11.724-0.112,17.533-0.713c9.637-0.997,17.347-5.827,23.572-13.098c3.474-4.057,6.803-8.237,10.23-12.333
		c0.453-0.54,1.192-1.354,1.658-1.269c1.146,0.211,2.238,0.819,3.275,1.405c0.163,0.092,0.018,0.941-0.15,1.377
		c-3.742,9.707-7.545,19.391-11.224,29.122c-0.518,1.371-1.359,1.263-2.387,1.262c-9.398-0.006-18.795-0.021-28.192,0.014
		c-1.536,0.006-3.071,0.237-4.607,0.366C217.221,156.259,202.703,156.261,188.185,156.264 M104.153,69.184c-0.068,0-0.135,0-0.203,0
		c0,6.552,0.041,13.104-0.032,19.655c-0.016,1.476,0.43,1.923,1.895,1.884c3.013-0.08,6.031,0.023,9.047,0.053
		c8.303,0.084,16.013-1.801,22.904-6.65c13.459-9.47,14.203-32.187-3.128-41.004c-6.742-3.43-13.895-4.413-21.321-3.541
		c-3.253,0.383-6.357,1.458-7.784,4.75c-0.769,1.774-1.269,3.8-1.317,5.726C104.053,56.428,104.153,62.808,104.153,69.184"/>
	<path clip-path="url(#SVGID_2_)" fill="#242021" d="M341.635,212.796c0,17.931,0.008,35.862-0.008,53.793
		c-0.002,3.05,0.482,2.81-2.681,2.815c-6.983,0.014-13.966-0.055-20.948,0.043c-1.897,0.025-2.792-0.469-3.471-2.415
		c-8.629-24.758-17.38-49.475-26.118-74.195c-0.234-0.662-0.67-1.253-1.011-1.878c-0.027,0.688-0.077,1.374-0.077,2.061
		c-0.004,24.569,0.001,49.139-0.011,73.706c-0.001,2.862,0.44,2.675-2.56,2.681c-5.431,0.011-10.864-0.069-16.292,0.041
		c-1.824,0.038-2.304-0.538-2.302-2.329c0.049-36.207,0.054-72.414-0.011-108.62c-0.004-2.025,0.654-2.421,2.506-2.396
		c7.239,0.097,14.483,0.122,21.723-0.016c1.95-0.037,2.63,0.726,3.224,2.408c8.543,24.147,17.15,48.272,25.753,72.399
		c0.246,0.688,0.623,1.331,0.939,1.995c0.073-0.739,0.21-1.479,0.21-2.22c0.011-23.879,0.008-47.758,0.009-71.637
		c0-2.885,0.005-2.889,2.958-2.89c5.172-0.002,10.345-0.011,15.518,0.004c3.091,0.008,2.641-0.193,2.643,2.599
		C341.642,176.762,341.635,194.779,341.635,212.796"/>
	<path clip-path="url(#SVGID_2_)" fill="#242021" d="M27.11,212.688c0-18.015-0.001-36.031,0.002-54.047
		c0-2.484,0.011-2.497,2.492-2.497c12.155-0.004,24.31-0.104,36.462,0.059c3.934,0.054,7.931,0.46,11.773,1.291
		c11.496,2.487,18.313,10.046,19.485,21.762c0.406,4.06,0.294,8.291-0.367,12.314c-1.387,8.449-6.28,14.344-14.333,17.5
		c-0.445,0.174-0.832,0.493-1.246,0.744c0.443,0.146,0.878,0.327,1.33,0.435c9.837,2.349,15.624,8.712,17.705,18.399
		c1.49,6.932,1.092,13.911-1.11,20.674c-3.692,11.342-12.03,17.235-23.39,19.266c-3.117,0.557-6.331,0.765-9.503,0.786
		c-12.24,0.087-24.481,0.04-36.721,0.031c-3.02-0.002-2.57,0.184-2.572-2.669C27.104,248.721,27.11,230.704,27.11,212.688
		 M56.859,218.248c-0.012,0.102-0.024,0.203-0.036,0.306c-1.464,0-2.937,0.101-4.39-0.026c-1.739-0.153-2.419,0.369-2.356,2.241
		c0.136,4.043,0.042,8.094,0.042,12.141c0.001,5.942-0.002,11.885,0.006,17.827c0.001,0.913-0.257,1.964,1.315,1.886
		c4.464-0.223,8.973-0.062,13.388-0.635c5.957-0.772,10.116-4.085,11.687-10.124c1.082-4.162,1.108-8.364,0.072-12.524
		c-1.321-5.309-4.616-8.826-10.036-9.917C63.371,218.781,60.092,218.623,56.859,218.248 M50.122,187.668
		c0,4.391,0.004,8.779-0.004,13.17c-0.001,0.905-0.038,1.73,1.287,1.688c3.524-0.112,7.088,0.144,10.568-0.29
		c7.741-0.965,11.6-4.455,12.52-11.125c0.314-2.272,0.306-4.666-0.021-6.938c-0.932-6.482-4.479-9.959-11-10.674
		c-3.749-0.409-7.556-0.271-11.33-0.497c-1.589-0.095-2.093,0.416-2.055,2.015C50.185,179.231,50.12,183.45,50.122,187.668"/>
	<path clip-path="url(#SVGID_2_)" fill="#242021" d="M188.185,156.263c14.518-0.002,29.036-0.005,43.555-0.007
		c4.437,0.017,8.726,0.803,12.833,2.501c6.853,2.831,11.549,7.753,13.72,14.83c2.624,8.553,2.501,17.165-0.461,25.625
		c-2.337,6.676-7.034,11.091-13.718,13.389c-0.404,0.14-0.848,0.176-1.235,0.343c-0.292,0.125-0.527,0.385-0.787,0.584
		c0.275,0.092,0.545,0.199,0.824,0.272c1.33,0.345,2.677,0.628,3.989,1.028c4.979,1.516,8.232,4.829,9.902,9.715
		c2.264,6.622,2.286,13.53,2.591,20.408c0.238,5.411,0.522,10.822,0.971,16.219c0.224,2.709,1.223,5.185,3.544,6.919
		c0.271,0.202,0.349,0.666,0.516,1.008c-0.385,0.111-0.769,0.31-1.156,0.318c-1.637,0.035-3.274,0.014-4.911,0.014
		c-5.603,0-11.204-0.058-16.805,0.036c-1.642,0.028-2.736-0.473-3.036-2.062c-0.668-3.528-1.534-7.061-1.747-10.624
		c-0.426-7.13-0.45-14.281-0.686-21.422c-0.042-1.281-0.216-2.574-0.477-3.831c-1.242-5.973-4.907-9.396-11-9.821
		c-4.203-0.294-8.44-0.08-12.661-0.149c-1.054-0.018-1.318,0.417-1.295,1.377c0.047,2.067,0.014,4.137,0.014,6.204
		c0,12.668-0.034,25.336,0.04,38.004c0.01,1.786-0.453,2.362-2.285,2.33c-6.203-0.106-12.409-0.106-18.612-0.002
		c-1.826,0.031-2.29-0.533-2.288-2.324c0.051-36.193,0.035-72.389,0.064-108.583C187.589,157.796,187.978,157.029,188.185,156.263
		 M217.216,205.758c0.003-0.076,0.005-0.152,0.008-0.228c1.805,0,3.615,0.079,5.416-0.015c7.258-0.378,12.176-3.92,13.652-10.383
		c0.695-3.043,0.922-6.347,0.573-9.444c-0.854-7.577-4.881-11.495-12.52-12.348c-3.828-0.427-7.73-0.146-11.59-0.347
		c-1.767-0.092-2.136,0.554-2.121,2.193c0.077,8.001,0.022,16.003,0.044,24.006c0.006,2.046,0.122,4.092,0.188,6.138
		C212.983,205.473,215.099,205.616,217.216,205.758"/>
	<path clip-path="url(#SVGID_2_)" fill="#242021" d="M149.909,156.247c1.942,0.01,3.885,0.021,5.828,0.03
		c0.371,0.723,0.889,1.407,1.092,2.174c9.577,36.165,19.129,72.336,28.677,108.508c0.638,2.416,0.614,2.442-1.758,2.447
		c-6.38,0.011-12.761-0.072-19.138,0.053c-1.815,0.036-2.559-0.474-2.921-2.272c-1.308-6.491-2.843-12.937-4.143-19.43
		c-0.349-1.742-0.904-2.387-2.811-2.357c-8.361,0.127-16.725,0.135-25.086-0.003c-2.039-0.034-2.817,0.557-3.209,2.528
		c-1.273,6.412-2.801,12.774-4.079,19.186c-0.353,1.772-0.999,2.384-2.859,2.347c-6.29-0.125-12.585-0.025-18.879-0.057
		c-2.809-0.014-2.873,0.451-2.072-2.577c5.564-21.037,11.144-42.069,16.711-63.104c3.96-14.964,7.937-29.923,11.826-44.904
		c0.506-1.946,1.189-2.817,3.432-2.739C136.977,156.299,143.444,156.212,149.909,156.247 M141.985,226.742
		c3.188,0,6.377-0.047,9.563,0.024c1.226,0.026,1.472-0.414,1.219-1.509c-0.679-2.932-1.324-5.872-1.956-8.814
		c-2.782-12.947-5.555-25.896-8.331-38.844c-0.072-0.334-0.149-0.666-0.224-1c-0.232,0.321-0.589,0.613-0.677,0.971
		c-0.367,1.502-0.647,3.026-0.971,4.539c-3.039,14.212-6.029,28.435-9.182,42.621c-0.445,2,0.218,2.078,1.771,2.036
		C136.125,226.687,139.056,226.743,141.985,226.742"/>
	<path clip-path="url(#SVGID_2_)" fill="#242021" d="M315.374,33.787c8.358,0,16.724-0.233,25.071,0.048
		c17.54,0.59,32.775,6.696,44.687,19.918c7.239,8.038,11.091,17.724,12.598,28.347c1.782,12.57,0.883,24.93-3.726,36.838
		c-6.839,17.671-19.97,28.467-37.854,33.7c-4.677,1.368-9.59,1.962-14.417,2.779c-7.691,1.301-15.434,0.543-23.165,0.491
		c-9.729-0.063-19.46,0.146-29.189,0.19c-0.966,0.004-2.701-0.163-2.767-0.502c-0.302-1.571-0.173-3.233-0.094-4.857
		c0.009-0.173,0.687-0.407,1.073-0.45c0.854-0.098,1.721-0.068,2.579-0.132c6.727-0.498,10.232-3.647,11.074-10.361
		c0.49-3.917,0.75-7.888,0.764-11.835c0.07-22.146,0.071-44.292,0-66.437c-0.014-3.947-0.26-7.922-0.786-11.832
		c-0.92-6.819-4.502-9.902-11.405-10.275c-0.43-0.023-0.862-0.033-1.292-0.028c-1.532,0.017-2.293-0.469-2.203-2.264
		c0.201-4.051-0.396-3.397,3.461-3.413c8.531-0.036,17.062-0.011,25.592-0.011C315.374,33.729,315.374,33.758,315.374,33.787
		 M318.633,93.776c0,12.234-0.099,24.469,0.058,36.702c0.049,3.841,0.521,7.726,1.271,11.498c0.875,4.401,3.867,7.121,8.324,7.686
		c3.48,0.442,7.05,0.685,10.54,0.445c15.739-1.082,27.288-8.535,34.068-22.985c3.291-7.015,4.972-14.455,5.76-22.109
		c1.242-12.078,0.866-24.083-2.447-35.834c-2.871-10.185-8.101-18.814-17.56-24.239c-9.5-5.449-19.874-6.467-30.494-5.2
		c-5.619,0.67-7.928,3.25-8.815,8.859c-0.455,2.876-0.657,5.819-0.675,8.733C318.591,69.48,318.632,81.628,318.633,93.776"/>
	<path clip-path="url(#SVGID_2_)" fill="#242021" d="M366.716,213.204c-0.001-3.875,0.043-7.751-0.025-11.625
		c-0.024-1.322,0.349-1.85,1.737-1.762c1.889,0.119,3.794-0.042,5.68,0.093c3.073,0.219,4.916,1.913,5.375,4.95
		c0.467,3.094,0.338,6.051-2.617,8.084c-0.151,0.104-0.135,0.84-0.001,0.909c2.261,1.187,2.583,3.258,2.631,5.493
		c0.036,1.716,0.04,3.441,0.243,5.142c0.076,0.639,0.674,1.216,1.034,1.821c0.306-0.558,0.73-1.081,0.899-1.678
		c2.186-7.683,4.328-15.378,6.501-23.064c0.156-0.555,0.319-1.354,0.717-1.547c1.027-0.496,1.647-0.1,1.977,1.147
		c2.103,7.973,4.307,15.92,6.44,23.885c0.11,0.41-0.121,0.911-0.192,1.369c-0.416-0.309-1.07-0.537-1.205-0.94
		c-0.6-1.789-1.086-3.617-1.541-5.45c-0.282-1.138-0.73-1.78-2.09-1.684c-1.885,0.135-3.789,0.1-5.68,0.01
		c-1.281-0.06-1.873,0.41-2.082,1.677c-0.181,1.093-0.61,2.143-0.903,3.22c-0.916,3.37-0.915,3.419-4.222,3.151
		c-0.43-0.035-1.082-0.822-1.143-1.32c-0.219-1.785-0.267-3.595-0.309-5.398c-0.1-4.166-1.289-5.379-5.422-5.442
		c-4.233-0.065-4.233-0.065-4.232,4.136c0.001,2.239,0.045,4.479-0.034,6.715c-0.016,0.46-0.491,0.903-0.754,1.354
		c-0.26-0.454-0.739-0.905-0.746-1.363C366.693,221.126,366.718,217.165,366.716,213.204 M368.287,207.019c0,0.516,0,1.03,0,1.545
		c0,4.535,0,4.535,4.562,4.256c3.726-0.228,5.34-2.114,5.245-6.134c-0.099-4.199-1.789-5.423-7.425-5.375
		c-2.386,0.021-2.386,0.021-2.383,4.679C368.287,206.332,368.287,206.676,368.287,207.019 M389.41,216.914
		c0.856,0,1.721-0.065,2.571,0.015c1.439,0.135,1.499-0.463,1.161-1.657c-1.044-3.704-1.967-7.44-2.971-11.156
		c-0.144-0.531-0.478-1.013-0.723-1.517c-0.221,0.551-0.494,1.087-0.649,1.655c-0.791,2.886-1.537,5.785-2.327,8.671
		C385.381,216.917,385.371,216.915,389.41,216.914"/>
	<path clip-path="url(#SVGID_2_)" fill="#242021" d="M400.89,194.245c-16.278,0.001-32.558,0.006-48.835-0.016
		c-0.816-0.001-1.632-0.235-2.446-0.361c0.78-0.167,1.561-0.481,2.341-0.482c32.557-0.024,65.113-0.025,97.67,0.001
		c0.767,0,1.531,0.327,2.297,0.501c-0.73,0.119-1.461,0.34-2.191,0.341C433.446,194.249,417.167,194.244,400.89,194.245"/>
	<path clip-path="url(#SVGID_2_)" fill="#242021" d="M370.172,176.084c-0.001-3.789,0.063-7.58-0.033-11.367
		c-0.038-1.494,0.469-1.968,1.913-1.893c1.889,0.098,3.792-0.047,5.682,0.048c2.949,0.148,4.798,1.756,5.306,4.679
		c0.553,3.184,0.43,6.235-2.629,8.289c-0.702,0.472-0.505,0.698,0.095,0.986c1.983,0.954,2.433,2.732,2.552,4.713
		c0.138,2.309,0.345,4.614,0.467,6.924c0.017,0.302-0.295,0.62-0.454,0.931c-0.347-0.181-0.931-0.298-0.999-0.553
		c-0.262-0.989-0.436-2.016-0.5-3.038c-0.102-1.631,0.031-3.283-0.154-4.9c-0.272-2.355-1.566-3.49-3.901-3.722
		c-5.786-0.571-5.786-0.571-5.786,5.247c0,1.464,0.115,2.94-0.042,4.387c-0.093,0.861,0.785,2.181-0.817,2.45
		c-0.099,0.018-0.647-1.512-0.664-2.329C370.129,183.32,370.172,179.702,370.172,176.084 M375.042,164.15
		c-3.872,0.069-3.251-0.521-3.314,3.227c-0.023,1.377-0.004,2.755-0.004,4.133c0,4.63,0,4.63,4.673,4.255
		c3.784-0.303,5.441-2.217,5.32-6.144c-0.116-3.778-1.803-5.414-5.643-5.47C375.73,164.146,375.386,164.15,375.042,164.15"/>
	<path clip-path="url(#SVGID_2_)" fill="#242021" d="M425.328,182.522c-0.196-2.664,1.521-4.905,3.851-6.669
		c1.511-1.143,1.532-1.947,0.541-3.527c-0.912-1.454-1.505-3.305-1.614-5.02c-0.172-2.715,1.883-4.495,4.557-4.459
		c2.591,0.035,4.125,1.71,4.258,4.476c0.116,2.451-0.906,4.405-2.688,5.873c-1.405,1.158-1.263,2.063-0.302,3.369
		c1.27,1.729,2.361,3.588,3.543,5.382c0.133,0.202,0.359,0.345,0.542,0.514c0.158-0.237,0.391-0.455,0.46-0.716
		c0.176-0.66,0.198-1.37,0.436-2.002c0.203-0.541,0.621-1,0.943-1.495c0.156,0.591,0.45,1.186,0.435,1.772
		c-0.021,0.761-0.154,1.579-0.477,2.26c-0.753,1.595-0.566,2.946,0.609,4.248c0.455,0.503,0.798,1.126,1.099,1.74
		c0.148,0.302,0.084,0.708,0.115,1.067c-0.388-0.103-0.777-0.196-1.161-0.312c-0.068-0.02-0.108-0.128-0.163-0.194
		c-0.681-0.843-1.362-1.685-2.043-2.526c-0.732,0.707-1.396,1.505-2.207,2.104c-2.249,1.664-4.762,2.074-7.29,0.827
		C426.284,188.009,425.353,185.744,425.328,182.522 M432.195,188.47c1.488-0.011,2.91-1.014,4.198-2.362
		c0.88-0.921,1.191-1.718,0.306-2.879c-1.086-1.424-1.987-2.99-2.955-4.504c-2.269-3.553-2.525-3.58-5.149-0.267
		c-0.525,0.663-1.003,1.406-1.313,2.188C425.811,184.343,428.139,188.382,432.195,188.47 M435.669,167.33
		c-0.054-1.661-1.518-3.194-3.202-3.149c-1.768,0.048-3.229,1.513-2.894,3.488c0.289,1.701,1.21,3.306,1.951,4.907
		c0.095,0.202,0.95,0.329,1.188,0.146C434.402,171.421,435.541,169.757,435.669,167.33"/>
	<path clip-path="url(#SVGID_2_)" fill="#242021" d="M440.188,219.076c0.051,5.398-3.304,8.433-8.23,7.755
		c-3.699-0.509-6.203-3.937-5.554-7.655c0.061-0.338,0.412-0.624,0.629-0.934c0.301,0.322,0.732,0.599,0.867,0.979
		c0.165,0.467,0.041,1.026,0.11,1.536c0.384,2.842,2.51,4.828,5.163,4.846c2.673,0.02,4.849-1.893,5.338-4.69
		c0.576-3.291-0.464-5.271-3.529-6.62c-1.572-0.692-3.226-1.215-4.747-2.002c-3.361-1.739-4.474-6.019-2.602-9.62
		c1.543-2.97,5.482-4.136,8.759-2.593c1.933,0.91,3.489,3.616,3.238,5.753c-0.041,0.344-0.405,0.649-0.619,0.974
		c-0.297-0.24-0.705-0.424-0.862-0.734c-0.185-0.364-0.125-0.845-0.215-1.266c-0.585-2.744-2.197-4.03-4.9-3.923
		c-2.627,0.104-4.224,1.615-4.572,4.33c-0.416,3.228,0.609,4.969,3.688,6.22c1.273,0.519,2.567,0.985,3.837,1.512
		C438.851,214.127,440.293,216.256,440.188,219.076"/>
	<path clip-path="url(#SVGID_2_)" fill="#242021" d="M371.527,263.565c-1.465,0-2.933-0.058-4.396,0.018
		c-1.141,0.058-1.472-0.394-1.467-1.496c0.033-7.842,0.041-15.685-0.012-23.527c-0.009-1.287,0.447-1.614,1.653-1.584
		c2.842,0.071,5.688-0.01,8.53,0.057c0.461,0.01,0.913,0.453,1.37,0.696c-0.434,0.274-0.859,0.771-1.303,0.787
		c-2.238,0.082-4.482,0.104-6.72,0.019c-1.369-0.052-2.041,0.261-1.962,1.817c0.116,2.321,0.106,4.655,0.003,6.979
		c-0.063,1.428,0.539,1.73,1.811,1.679c2.065-0.083,4.138-0.066,6.203,0.017c0.438,0.018,0.857,0.507,1.285,0.778
		c-0.455,0.245-0.903,0.687-1.367,0.702c-2.152,0.076-4.309,0.085-6.462,0.016c-1.144-0.037-1.48,0.406-1.46,1.497
		c0.052,2.843,0.054,5.688-0.002,8.531c-0.022,1.135,0.415,1.496,1.51,1.472c2.412-0.056,4.828-0.064,7.238,0.021
		c0.532,0.02,1.046,0.511,1.569,0.784c-0.544,0.246-1.073,0.666-1.631,0.705C374.462,263.632,372.992,263.565,371.527,263.565"/>
	<path clip-path="url(#SVGID_2_)" fill="#242021" d="M411.99,182.443c0.099-2.322-0.913-3.989-3.024-4.934
		c-1.568-0.7-3.202-1.257-4.768-1.962c-3.551-1.597-4.881-4.859-3.654-8.823c1.028-3.326,4.03-4.929,7.802-4.168
		c2.787,0.562,4.786,3.103,4.643,5.998c-0.021,0.4-0.403,0.782-0.617,1.173c-0.299-0.312-0.644-0.595-0.879-0.948
		c-0.126-0.189-0.043-0.508-0.098-0.759c-0.588-2.765-2.004-4.135-4.421-4.288c-2.38-0.149-4.221,1.079-4.945,3.304
		c-0.893,2.746-0.194,5.34,2.027,6.573c1.643,0.912,3.441,1.559,5.206,2.228c4.763,1.805,4.968,6.562,3.696,9.914
		c-1.312,3.455-5.305,5.015-9.074,3.703c-2.77-0.965-4.901-4.742-4.193-7.528c0.077-0.303,0.511-0.516,0.779-0.77
		c0.247,0.27,0.605,0.502,0.714,0.818c0.133,0.391,0.019,0.857,0.078,1.281c0.489,3.406,2.615,5.367,5.617,5.203
		C409.91,188.294,411.995,185.839,411.99,182.443"/>
	<path clip-path="url(#SVGID_2_)" fill="#242021" d="M385.708,263.99c-4.269-0.042-7.012-3.132-6.553-7.438
		c0.046-0.428,0.402-0.822,0.614-1.232c0.253,0.36,0.624,0.688,0.734,1.087c0.226,0.824,0.236,1.71,0.474,2.529
		c0.642,2.206,2.209,3.444,4.476,3.645c2.3,0.203,4.284-0.895,5.275-2.921c1.684-3.433,0.479-6.726-3.062-8.279
		c-1.413-0.619-2.893-1.092-4.287-1.747c-3.442-1.617-4.652-4.665-3.509-8.643c0.9-3.139,3.645-4.808,7.217-4.389
		c3.111,0.364,5.292,2.842,5.216,6.005c-0.009,0.397-0.354,0.788-0.544,1.182c-0.321-0.303-0.771-0.551-0.932-0.923
		c-0.23-0.537-0.186-1.185-0.37-1.749c-0.709-2.153-2.11-3.096-4.48-3.078c-2.4,0.02-3.838,0.977-4.556,3.037
		c-1.13,3.24,0.07,6.025,3.209,7.364c1.342,0.571,2.733,1.03,4.068,1.617c3.487,1.529,4.892,4.481,4.081,8.473
		C392.079,261.981,389.43,264.026,385.708,263.99"/>
	<path clip-path="url(#SVGID_2_)" fill="#242021" d="M402.67,268.559c16.195-0.002,32.392-0.007,48.588,0.017
		c0.771,0.001,1.542,0.254,2.312,0.39c-0.782,0.155-1.562,0.446-2.345,0.447c-32.478,0.022-64.954,0.02-97.432,0.02
		c-0.345,0-0.696,0.045-1.031-0.013c-0.385-0.066-0.752-0.224-1.128-0.342c0.386-0.172,0.768-0.484,1.157-0.493
		c2.152-0.048,4.308-0.023,6.46-0.023C373.726,268.561,388.197,268.561,402.67,268.559"/>
	<path clip-path="url(#SVGID_2_)" fill="#242021" d="M402.668,230.881c16.119,0,32.238-0.006,48.356,0.017
		c0.876,0.001,1.752,0.237,2.629,0.363c-0.839,0.189-1.677,0.546-2.516,0.547c-32.411,0.027-64.821,0.026-97.23,0.005
		c-0.783-0.001-1.565-0.286-2.349-0.439c0.745-0.164,1.49-0.47,2.235-0.471C370.085,230.875,386.377,230.881,402.668,230.881"/>
	<path clip-path="url(#SVGID_2_)" fill="#242021" d="M367.105,189.162c-0.021,0.007-0.361,0.235-0.645,0.177
		c-0.355-0.072-0.864-0.313-0.956-0.597c-0.58-1.795-1.217-3.595-1.532-5.445c-0.295-1.731-1.099-2.237-2.768-2.106
		c-2.135,0.166-4.849-0.667-6.273,0.364c-1.386,1.004-1.461,3.819-2.112,5.838c-0.054,0.164-0.075,0.358-0.18,0.481
		c-0.431,0.506-0.888,0.989-1.335,1.481c-0.03-0.617-0.221-1.279-0.064-1.846c2.116-7.689,4.264-15.371,6.47-23.035
		c0.176-0.61,0.844-1.08,1.284-1.615c0.465,0.478,1.196,0.88,1.354,1.442c2.199,7.849,4.319,15.717,6.457,23.581
		C366.873,188.131,366.924,188.383,367.105,189.162 M358.859,179.751c0.946,0,1.895-0.024,2.841,0.007
		c0.853,0.029,1.325-0.213,1.063-1.178c-1.125-4.146-2.24-8.295-3.37-12.44c-0.064-0.237-0.232-0.448-0.353-0.672
		c-0.139,0.242-0.334,0.47-0.407,0.73c-0.895,3.228-1.767,6.464-2.658,9.693C354.911,179.755,354.905,179.753,358.859,179.751"/>
	<path clip-path="url(#SVGID_2_)" fill="#242021" d="M349.556,213.452c0.32-3.701,0.521-7.312,2.31-10.596
		c2.167-3.977,7.688-4.769,10.392-1.319c1.094,1.396,1.421,3.405,2.019,5.162c0.072,0.211-0.344,0.587-0.534,0.888
		c-0.304-0.206-0.763-0.35-0.88-0.633c-0.224-0.545-0.217-1.179-0.37-1.758c-0.709-2.672-2.263-4.151-4.487-4.311
		c-2.385-0.171-4.338,1.067-5.313,3.672c-1.646,4.391-1.441,8.963-0.952,13.517c0.146,1.352,0.499,2.714,0.98,3.988
		c0.788,2.091,2.332,3.479,4.636,3.505c2.19,0.024,3.743-1.23,4.533-3.236c0.529-1.342,0.771-2.796,1.227-4.172
		c0.098-0.298,0.533-0.562,0.867-0.667c0.136-0.042,0.554,0.355,0.614,0.606c0.995,4.189-3.515,9.191-7.884,8.838
		c-2.986-0.242-4.804-2.014-5.533-4.659C350.386,219.405,350.075,216.399,349.556,213.452"/>
	<path clip-path="url(#SVGID_2_)" fill="#242021" d="M440.644,263.057c-0.144,0.116-0.409,0.475-0.572,0.433
		c-0.361-0.092-0.879-0.317-0.971-0.605c-0.497-1.551-0.876-3.139-1.311-4.708c-0.802-2.895-0.807-2.927-3.713-2.883
		c-1.959,0.03-4.397-0.499-5.73,0.46c-1.213,0.873-1.181,3.432-1.78,5.22c-0.315,0.944,0.043,2.352-1.539,2.548
		c0.037-0.974-0.109-1.999,0.142-2.915c1.92-7.032,3.917-14.043,5.888-21.062c0.047-0.166,0.037-0.354,0.113-0.502
		c0.393-0.753,0.082-1.999,1.498-2.037c1.449-0.04,1.291,1.168,1.514,1.97c1.423,5.126,2.782,10.269,4.168,15.405
		c0.625,2.317,1.265,4.631,1.89,6.948C440.375,261.825,440.476,262.331,440.644,263.057 M432.464,254.074
		c0.773,0,1.558-0.078,2.319,0.017c1.731,0.214,1.808-0.691,1.454-1.978c-0.999-3.638-1.974-7.282-2.995-10.913
		c-0.117-0.421-0.467-0.776-0.708-1.162c-0.158,0.363-0.364,0.713-0.471,1.092c-0.854,3.058-1.702,6.118-2.532,9.184
		C428.515,254.07,428.522,254.073,432.464,254.074"/>
	<path clip-path="url(#SVGID_2_)" fill="#242021" d="M427.045,237.954c-1.28,5.212-2.49,10.133-3.696,15.055
		c-0.716,2.919-1.373,5.854-2.179,8.748c-0.188,0.673-0.773,1.558-1.358,1.731c-1.296,0.386-1.188-0.944-1.368-1.661
		c-1.945-7.748-3.853-15.506-5.727-23.271c-0.111-0.461,0.151-1.012,0.239-1.521c0.4,0.411,1.046,0.763,1.167,1.244
		c1.591,6.329,3.09,12.683,4.662,19.017c0.255,1.025,0.753,1.992,1.139,2.985c0.306-1.029,0.656-2.049,0.909-3.091
		c1.419-5.841,2.814-11.688,4.219-17.533c0.14-0.585,0.191-1.216,0.456-1.738c0.188-0.371,0.667-0.596,1.017-0.885
		C426.733,237.402,426.942,237.772,427.045,237.954"/>
	<path clip-path="url(#SVGID_2_)" fill="#242021" d="M399.486,213.037c0-3.792,0.068-7.586-0.033-11.375
		c-0.04-1.495,0.459-1.901,1.895-1.849c2.754,0.104,5.515-0.003,8.271,0.065c0.445,0.011,0.879,0.468,1.318,0.719
		c-0.425,0.266-0.842,0.746-1.275,0.761c-2.324,0.076-4.653,0.086-6.979,0.018c-1.159-0.034-1.72,0.216-1.67,1.539
		c0.094,2.496,0.076,4.999,0.005,7.496c-0.033,1.178,0.457,1.463,1.525,1.432c2.066-0.058,4.139-0.072,6.202,0.024
		c0.533,0.023,1.045,0.521,1.566,0.8c-0.55,0.237-1.09,0.647-1.652,0.68c-1.632,0.093-3.272,0.026-4.91,0.036
		c-2.943,0.02-2.699-0.34-2.71,2.831c-0.009,2.844,0.036,5.688-0.033,8.531c-0.014,0.568-0.437,1.128-0.671,1.69
		c-0.283-0.588-0.801-1.172-0.812-1.765C399.45,220.794,399.486,216.915,399.486,213.037"/>
	<path clip-path="url(#SVGID_2_)" fill="#242021" d="M352.066,250.125c0-3.791,0.054-7.583-0.028-11.373
		c-0.03-1.356,0.406-1.809,1.753-1.771c2.841,0.078,5.688-0.007,8.529,0.054c0.479,0.01,0.952,0.418,1.428,0.642
		c-0.506,0.293-1.002,0.818-1.518,0.839c-2.323,0.093-4.652,0.085-6.978,0.023c-1.186-0.031-1.709,0.301-1.659,1.601
		c0.093,2.408,0.081,4.824,0.004,7.234c-0.039,1.219,0.336,1.691,1.597,1.636c1.978-0.086,3.966-0.085,5.941,0.017
		c0.601,0.031,1.178,0.516,1.766,0.793c-0.624,0.24-1.239,0.658-1.873,0.688c-1.892,0.094-3.793,0.104-5.685,0.011
		c-1.341-0.066-1.792,0.379-1.753,1.746c0.092,3.186,0.061,6.376-0.003,9.562c-0.011,0.564-0.412,1.12-0.632,1.68
		c-0.297-0.583-0.839-1.161-0.851-1.75C352.029,257.88,352.066,254.002,352.066,250.125"/>
	<path clip-path="url(#SVGID_2_)" fill="#242021" d="M390.777,176.723c0-3.531-0.063-7.062,0.031-10.591
		c0.038-1.386-0.437-1.823-1.755-1.731c-1.2,0.085-2.413,0.062-3.614-0.016c-0.32-0.021-0.619-0.413-0.927-0.634
		c0.315-0.302,0.627-0.859,0.946-0.863c4.047-0.059,8.095-0.058,12.141,0c0.336,0.005,0.664,0.532,0.995,0.816
		c-0.292,0.236-0.559,0.525-0.888,0.69c-0.206,0.105-0.507,0.018-0.766,0.026c-1.45,0.056-3.59-0.434-4.183,0.31
		c-0.78,0.977-0.408,2.924-0.416,4.454c-0.03,5.771-0.012,11.539-0.012,17.31c0,0.517,0.097,1.059-0.029,1.543
		c-0.125,0.48-0.474,0.902-0.725,1.351c-0.266-0.432-0.749-0.859-0.762-1.299c-0.073-2.581-0.037-5.166-0.038-7.749
		C390.777,179.134,390.777,177.929,390.777,176.723"/>
	<path clip-path="url(#SVGID_2_)" fill="#242021" d="M418.109,213.946c0-3.609-0.058-7.222,0.028-10.83
		c0.032-1.36-0.406-1.843-1.748-1.739c-1.195,0.092-2.411,0.078-3.605-0.022c-0.361-0.03-0.686-0.503-1.026-0.773
		c0.281-0.243,0.562-0.697,0.844-0.699c4.213-0.042,8.425-0.037,12.636,0.015c0.235,0.003,0.466,0.519,0.697,0.795
		c-0.28,0.232-0.55,0.646-0.845,0.664c-1.198,0.079-2.413,0.131-3.604,0.018c-1.485-0.143-1.869,0.43-1.854,1.87
		c0.069,6.876,0.066,13.755-0.012,20.63c-0.01,0.844,0.811,2.2-0.831,2.459c-0.103,0.016-0.628-1.513-0.647-2.328
		C418.065,220.652,418.109,217.299,418.109,213.946"/>
	<path clip-path="url(#SVGID_2_)" fill="#242021" d="M399.658,250.875c0-3.532-0.055-7.064,0.026-10.594
		c0.031-1.342-0.376-1.859-1.739-1.745c-1.197,0.099-2.416,0.08-3.612-0.029c-0.334-0.029-0.621-0.566-0.931-0.871
		c0.308-0.21,0.612-0.599,0.921-0.602c4.135-0.039,8.269-0.038,12.403,0.011c0.279,0.003,0.553,0.472,0.829,0.724
		c-0.282,0.26-0.547,0.718-0.849,0.742c-1.112,0.094-2.248,0.144-3.354,0.021c-1.688-0.188-2.207,0.411-2.182,2.132
		c0.098,6.631,0.068,13.266,0.009,19.897c-0.009,0.984-0.428,1.967-0.657,2.949c-1.615-0.65-0.783-2.049-0.821-3.075
		C399.583,257.252,399.658,254.062,399.658,250.875"/>
	<path clip-path="url(#SVGID_2_)" fill="#242021" d="M442.509,250.261c0-3.701-0.038-7.404,0.033-11.105
		c0.014-0.711,0.455-1.415,0.699-2.122c0.272,0.676,0.778,1.349,0.785,2.027c0.059,6.715,0.034,13.431,0.035,20.146
		c0.001,2.793,0.003,2.794,2.684,2.799c1.979,0.003,3.962-0.049,5.938,0.043c0.427,0.02,0.829,0.547,1.242,0.841
		c-0.384,0.223-0.766,0.631-1.153,0.638c-3.013,0.053-6.027-0.018-9.039,0.05c-1.381,0.031-1.226-0.829-1.226-1.692
		C442.511,258.01,442.509,254.135,442.509,250.261"/>
	<path clip-path="url(#SVGID_2_)" fill="#242021" d="M408.884,250.283c0-3.789-0.032-7.579,0.032-11.368
		c0.01-0.63,0.442-1.254,0.68-1.88c0.28,0.583,0.801,1.164,0.806,1.75c0.054,7.664,0.036,15.329,0.035,22.993
		c0,0.174,0.062,0.382-0.014,0.511c-0.249,0.43-0.547,0.83-0.826,1.241c-0.237-0.454-0.55-0.887-0.688-1.369
		c-0.114-0.397-0.024-0.854-0.024-1.285C408.884,257.345,408.884,253.813,408.884,250.283"/>
</g>
</svg>
